<?xml version="1.0" encoding="utf-8"?>
<!-- Generator: Adobe Illustrator 18.1.1, SVG Export Plug-In . SVG Version: 6.00 Build 0)  -->
<svg version="1.1" id="Layer_1" xmlns="http://www.w3.org/2000/svg" xmlns:xlink="http://www.w3.org/1999/xlink" x="0px" y="0px"
	 width="152px" height="159px" viewBox="0 0 152 159" enable-background="new 0 0 152 159" xml:space="preserve">
<g>
	<g>
		<path fill="#FFFFFF" d="M88.3,6.3c0,0-0.2,0.3-0.4,0.3c-0.9,0-11.8,0-14.5,1c-1.2,0.5-1.5,1-1.8,3.1c-0.6,3.7-0.8,6.5-0.8,9.7
			c-0.1,3.9,0,8,1.4,11.8c0.5,1.3,2,1.6,3.2,1.7c2,0.2,2.5,0.3,4.8-0.1c0.5-0.1,0.5-0.3,0.5-0.7c0.1-0.5,0.6-15.5,0.6-15.5
			c0-0.2,0.1-0.4,0.4-0.4c0.2,0,6.5,0,6.6,0c0.2,0,0.2,0.2,0.3,0.3l-0.2,22c0,0.3-0.3,0.4-0.4,0.4H88c-5.7,0.3-14.9,0.3-19.6-0.1
			c-1.9-0.2-2.6-0.3-3.3-2.1c-2.2-6-2.8-12.4-2.8-21.8c0-2.9,0.6-8.9,1.4-12.4c0.6-2.7,1.6-2.7,4.4-2.8c6.6-0.5,14.3-0.4,21.4,0.1
			c0.3,0,0.3,0.1,0.3,0.3C89.7,1.4,88.7,4.9,88.3,6.3z"/>
		<path fill="#FFFFFF" d="M88.9,155.1c-0.4,1.4-0.5,2.5-2.1,2.8c-3.6,0.7-17.2,1-21.8,0c-1.5-0.3-1.8-0.7-2.2-2.4
			c-2.3-8.9-2.8-25.7-0.1-34.9c0.4-1.1,0.8-1.2,1.7-1.4c2.9-0.6,19.6-0.7,23-0.1c1.5,0.3,1.7,0.5,2.1,1.9
			C92.3,130.7,90.9,145.5,88.9,155.1z M80.4,126c-1.5-0.6-6.3-0.6-8.1-0.1c-1.2,0.4-1.6,0.7-1.9,1.6c-1.9,4.6-2.5,18.7,0.5,23.2
			c0.2,0.3,0.6,0.7,1.1,0.9c1.8,0.6,5.5,0.7,7.7,0.1c0.8-0.2,1-0.4,1.4-1c2.4-4.7,3-18.2,0.8-23.4C81.5,126.5,81.2,126.2,80.4,126z"
			/>
	</g>
	<g>
		<path fill="#FFFFFF" d="M151.7,98.1c-0.1,0.1-3.9,1.4-5.3,1.9c-0.2,0.1-0.5,0.1-0.7-0.1c-0.1-0.1-9.1-10.7-9.1-10.7
			c-0.6,0.1-0.9,0.1-4.1,0.6c-0.2,3.1-0.2,5.4-0.3,8.4c-0.1,0.1-0.2,0.4-0.4,0.4h-6c-0.3,0-0.5-0.3-0.5-0.5c0,0-0.7-38.2-0.7-38.4
			c0-0.3,0.4-0.3,0.7-0.3c8.6-0.5,18.6-0.6,23.6,0.2c0.9,0.1,1.3,0.6,1.6,2.1c1.2,5.6,1.8,15.4,0.5,21.8c-0.2,1-0.1,1.7-1.2,2.2
			c-1.7,0.8-3.6,1.2-5.6,1.7c2.9,4.1,4.8,6.4,7.5,10.2C152,97.8,151.9,98,151.7,98.1z M142.5,66.2c-0.2-0.3-0.5-0.6-0.8-0.6
			c-2.8-0.3-5.4,0.1-8.1,0.6c-0.3,0.1-0.4,0.2-0.4,0.3c-0.3,6-0.6,9.9-0.5,15.9c0,0.3,0.4,0.5,0.6,0.4c3.2-0.1,6.9-1.2,9.1-2.2
			c1.6-0.6,1.8-1,1.9-2.1C144.6,75.3,144.2,68.9,142.5,66.2z"/>
		<path fill="#FFFFFF" d="M24.7,84.7c-0.4,1.4-0.5,1.5-1.9,2.2c-0.8,0.4-2.4,0.7-3.2,1l7.8,9.7c0.1,0,0.3,0.3,0,0.5
			c-0.2,0.1-5.8,1.7-6.2,1.8c-0.3,0.1-0.4-0.1-0.4-0.1l-8.9-10.6c0,0-2.3,0.3-3.8,0.3c-0.4,3.1-0.4,5.4-0.6,8.8c0,0-0.1,0.2-0.3,0.2
			H0.9c-0.2,0-0.2-0.2-0.2-0.2c-0.3-8.3-0.3-30.6-0.6-38.8c0-0.1,0.1-0.3,0.4-0.3c0.3,0,7.2,0,7.5,0c0.3,0,0.3,0,0.3,0.3
			c0,0.2-0.3,23-0.3,23c3.7-0.2,6.1-0.3,9-1.8c0.8-0.5,1.4-0.8,1.6-2c0.8-3.5,1.7-8,2.1-19.2c0.1-0.3,0.3-0.3,0.3-0.3h7.4
			c0.3,0,0.4,0,0.4,0.3C28.1,68.1,26.2,79.8,24.7,84.7z"/>
	</g>
	<path fill="#FFFFFF" d="M13.7,144.9c-0.7-0.1-1.3-0.3-1.7-0.7c-0.3-0.3-0.6-0.7-1-1.4c-0.4-0.7-0.7-1.1-0.9-1.3
		c-0.3-0.3-0.6-0.5-0.8-0.5l0.1-0.6c3.3-2.9,7.2-6.5,11.5-10.8c1.8-1.8,78.1-76.8,81.6-80.4c3.5-3.6,27.8-27.6,29.6-29.3
		c2.8-2.7,5.3-4.6,7.6-5.7c0.1,0.6,0.6,1.2,1.3,2c0.9,1,1.5,1.7,1.7,2c-5.9,5.9-10.3,10.3-13.2,13.2L27,132
		C24.1,134.9,19.7,139.2,13.7,144.9z"/>
	<path fill="#FFFFFF" d="M9.5,18.3c0.1-0.7,0.3-1.2,0.7-1.6c0.3-0.3,0.7-0.6,1.4-1c0.7-0.4,1.1-0.7,1.4-0.9c0.3-0.3,0.5-0.6,0.5-0.8
		l0.7,0.1c2.9,3.3,6.6,7,10.9,11.3c1.8,1.8,78.1,76.7,81.8,80.2c3.7,3.4,28,27.3,29.8,29.1c2.8,2.7,4.7,5.2,5.8,7.4
		c-0.6,0.1-1.3,0.5-2,1.3c-1,0.9-1.7,1.5-2.1,1.7c-6-5.8-10.5-10.1-13.4-13L22.6,31.4C19.6,28.5,15.3,24.2,9.5,18.3z"/>
</g>
</svg>
